<svg xmlns="http://www.w3.org/2000/svg" xmlns:xlink="http://www.w3.org/1999/xlink" class="httpgd" width="977.00" height="786.00" viewBox="0 0 977.00 786.00">
<defs>
<clipPath id="c0-a9c306c6-a7b9-43b9-91e5-8bb5944b51e1"><rect x="0.00" y="0.00" width="977.00" height="786.00"/></clipPath>
</defs>
<rect width="100%" height="100%" stroke="none" fill="#FFFFFF"/>
<g clip-path="url(#c0-a9c306c6-a7b9-43b9-91e5-8bb5944b51e1)">
<line x1="200.48" y1="712.56" x2="765.52" y2="712.56" stroke-width="0.75" stroke="#000000" stroke-linecap="round" stroke-linejoin="round"/>
<line x1="200.48" y1="712.56" x2="200.48" y2="719.76" stroke-width="0.75" stroke="#000000" stroke-linecap="round" stroke-linejoin="round"/>
<line x1="388.82" y1="712.56" x2="388.82" y2="719.76" stroke-width="0.75" stroke="#000000" stroke-linecap="round" stroke-linejoin="round"/>
<line x1="577.17" y1="712.56" x2="577.17" y2="719.76" stroke-width="0.75" stroke="#000000" stroke-linecap="round" stroke-linejoin="round"/>
<line x1="765.52" y1="712.56" x2="765.52" y2="719.76" stroke-width="0.75" stroke="#000000" stroke-linecap="round" stroke-linejoin="round"/>
<g><text x="200.48" y="738.48" text-anchor="middle" font-family="Arial" font-size="12.00px" textLength="26.70px" lengthAdjust="spacingAndGlyphs">2008</text></g>
<g><text x="388.82" y="738.48" text-anchor="middle" font-family="Arial" font-size="12.00px" textLength="26.70px" lengthAdjust="spacingAndGlyphs">2010</text></g>
<g><text x="577.17" y="738.48" text-anchor="middle" font-family="Arial" font-size="12.00px" textLength="26.70px" lengthAdjust="spacingAndGlyphs">2012</text></g>
<g><text x="765.52" y="738.48" text-anchor="middle" font-family="Arial" font-size="12.00px" textLength="26.70px" lengthAdjust="spacingAndGlyphs">2014</text></g>
<polyline points="91.92,385.80 91.92,385.80" fill="none" stroke-width="1.50" stroke="#FFFFFF" stroke-linecap="round" stroke-linejoin="round"/>
<polyline points="91.92,385.80 110.64,385.80" fill="none" stroke-width="1.50" stroke="#FF003D" stroke-linecap="round" stroke-linejoin="round"/>
<polyline points="110.64,196.70 110.64,461.44" fill="none" stroke-width="1.50" stroke="#FF003D" stroke-linecap="round" stroke-linejoin="round"/>
<polyline points="110.64,196.70 158.74,196.70" fill="none" stroke-width="1.50" stroke="#FF003D" stroke-linecap="round" stroke-linejoin="round"/>
<polyline points="110.64,461.44 153.75,461.44" fill="none" stroke-width="1.50" stroke="#FF003D" stroke-linecap="round" stroke-linejoin="round"/>
<polyline points="158.74,196.70 245.97,196.70" fill="none" stroke-width="1.50" stroke="#FF007A" stroke-linecap="round" stroke-linejoin="round"/>
<polyline points="153.75,461.44 270.15,461.44" fill="none" stroke-width="1.50" stroke="#FF00B8" stroke-linecap="round" stroke-linejoin="round"/>
<polyline points="245.97,196.70 321.07,196.70" fill="none" stroke-width="1.50" stroke="#FF00F5" stroke-linecap="round" stroke-linejoin="round"/>
<polyline points="270.15,461.44 406.01,461.44" fill="none" stroke-width="1.50" stroke="#8F00FF" stroke-linecap="round" stroke-linejoin="round"/>
<polyline points="321.07,196.70 381.23,196.70" fill="none" stroke-width="1.50" stroke="#CC00FF" stroke-linecap="round" stroke-linejoin="round"/>
<polyline points="406.01,461.44 410.10,461.44" fill="none" stroke-width="1.50" stroke="#1400FF" stroke-linecap="round" stroke-linejoin="round"/>
<polyline points="410.10,310.16 410.10,499.26" fill="none" stroke-width="1.50" stroke="#1400FF" stroke-linecap="round" stroke-linejoin="round"/>
<polyline points="381.23,196.70 449.02,196.70" fill="none" stroke-width="1.50" stroke="#5200FF" stroke-linecap="round" stroke-linejoin="round"/>
<polyline points="410.10,310.16 471.32,310.16" fill="none" stroke-width="1.50" stroke="#1400FF" stroke-linecap="round" stroke-linejoin="round"/>
<polyline points="410.10,499.26 506.15,499.26" fill="none" stroke-width="1.50" stroke="#1400FF" stroke-linecap="round" stroke-linejoin="round"/>
<polyline points="449.02,196.70 529.04,196.70" fill="none" stroke-width="1.50" stroke="#0029FF" stroke-linecap="round" stroke-linejoin="round"/>
<polyline points="471.32,310.16 611.63,310.16" fill="none" stroke-width="1.50" stroke="#00A3FF" stroke-linecap="round" stroke-linejoin="round"/>
<polyline points="506.15,499.26 547.67,499.26" fill="none" stroke-width="1.50" stroke="#00E0FF" stroke-linecap="round" stroke-linejoin="round"/>
<polyline points="547.67,385.80 547.67,537.08" fill="none" stroke-width="1.50" stroke="#00E0FF" stroke-linecap="round" stroke-linejoin="round"/>
<polyline points="529.04,196.70 586.52,196.70" fill="none" stroke-width="1.50" stroke="#0066FF" stroke-linecap="round" stroke-linejoin="round"/>
<polyline points="611.63,310.16 732.38,310.16" fill="none" stroke-width="1.50" stroke="#00FF66" stroke-linecap="round" stroke-linejoin="round"/>
<polyline points="547.67,385.80 603.11,385.80" fill="none" stroke-width="1.50" stroke="#00E0FF" stroke-linecap="round" stroke-linejoin="round"/>
<polyline points="547.67,537.08 569.36,537.08" fill="none" stroke-width="1.50" stroke="#00E0FF" stroke-linecap="round" stroke-linejoin="round"/>
<polyline points="569.36,461.44 569.36,574.90" fill="none" stroke-width="1.50" stroke="#00E0FF" stroke-linecap="round" stroke-linejoin="round"/>
<polyline points="586.52,196.70 623.13,196.70" fill="none" stroke-width="1.50" stroke="#FFB800" stroke-linecap="round" stroke-linejoin="round"/>
<polyline points="623.13,158.88 623.13,234.52" fill="none" stroke-width="1.50" stroke="#FFB800" stroke-linecap="round" stroke-linejoin="round"/>
<polyline points="732.38,310.16 821.25,310.16" fill="none" stroke-width="1.50" stroke="#FF3D00" stroke-linecap="round" stroke-linejoin="round"/>
<g><text x="828.45" y="313.03" font-family="Arial" font-size="12.00px" textLength="54.04px" lengthAdjust="spacingAndGlyphs">BTB-1146</text></g>
<polyline points="603.11,385.80 690.96,385.80" fill="none" stroke-width="1.50" stroke="#CCFF00" stroke-linecap="round" stroke-linejoin="round"/>
<g><text x="698.16" y="388.67" font-family="Arial" font-size="12.00px" textLength="47.36px" lengthAdjust="spacingAndGlyphs">BTB-262</text></g>
<polyline points="569.36,461.44 645.59,461.44" fill="none" stroke-width="1.50" stroke="#00E0FF" stroke-linecap="round" stroke-linejoin="round"/>
<polyline points="569.36,574.90 621.79,574.90" fill="none" stroke-width="1.50" stroke="#00E0FF" stroke-linecap="round" stroke-linejoin="round"/>
<polyline points="623.13,158.88 625.87,158.88" fill="none" stroke-width="1.50" stroke="#FFB800" stroke-linecap="round" stroke-linejoin="round"/>
<polyline points="623.13,234.52 675.22,234.52" fill="none" stroke-width="1.50" stroke="#FFB800" stroke-linecap="round" stroke-linejoin="round"/>
<g><text x="682.42" y="237.39" font-family="Arial" font-size="12.00px" textLength="47.36px" lengthAdjust="spacingAndGlyphs">BTB-175</text></g>
<polyline points="645.59,461.44 745.91,461.44" fill="none" stroke-width="1.50" stroke="#8FFF00" stroke-linecap="round" stroke-linejoin="round"/>
<g><text x="753.11" y="464.31" font-family="Arial" font-size="12.00px" textLength="47.36px" lengthAdjust="spacingAndGlyphs">BTB-604</text></g>
<polyline points="621.79,574.90 653.33,574.90" fill="none" stroke-width="1.50" stroke="#00FFA3" stroke-linecap="round" stroke-linejoin="round"/>
<polyline points="653.33,537.08 653.33,612.72" fill="none" stroke-width="1.50" stroke="#00FFA3" stroke-linecap="round" stroke-linejoin="round"/>
<polyline points="625.87,158.88 674.97,158.88" fill="none" stroke-width="1.50" stroke="#00FFE0" stroke-linecap="round" stroke-linejoin="round"/>
<polyline points="653.33,537.08 711.47,537.08" fill="none" stroke-width="1.50" stroke="#00FFA3" stroke-linecap="round" stroke-linejoin="round"/>
<polyline points="653.33,612.72 705.67,612.72" fill="none" stroke-width="1.50" stroke="#00FFA3" stroke-linecap="round" stroke-linejoin="round"/>
<polyline points="674.97,158.88 748.25,158.88" fill="none" stroke-width="1.50" stroke="#00FF29" stroke-linecap="round" stroke-linejoin="round"/>
<polyline points="711.47,537.08 805.86,537.08" fill="none" stroke-width="1.50" stroke="#14FF00" stroke-linecap="round" stroke-linejoin="round"/>
<polyline points="705.67,612.72 819.71,612.72" fill="none" stroke-width="1.50" stroke="#FF0000" stroke-linecap="round" stroke-linejoin="round"/>
<g><text x="826.91" y="615.59" font-family="Arial" font-size="12.00px" textLength="54.04px" lengthAdjust="spacingAndGlyphs">BTB-1139</text></g>
<polyline points="748.25,158.88 824.71,158.88" fill="none" stroke-width="1.50" stroke="#52FF00" stroke-linecap="round" stroke-linejoin="round"/>
<polyline points="805.86,537.08 900.98,537.08" fill="none" stroke-width="1.50" stroke="#FF7A00" stroke-linecap="round" stroke-linejoin="round"/>
<g><text x="908.18" y="539.95" font-family="Arial" font-size="12.00px" textLength="54.04px" lengthAdjust="spacingAndGlyphs">BTB-1705</text></g>
<polyline points="824.71,158.88 913.88,158.88" fill="none" stroke-width="1.50" stroke="#FFF500" stroke-linecap="round" stroke-linejoin="round"/>
<g><text x="921.08" y="161.75" font-family="Arial" font-size="12.00px" textLength="54.04px" lengthAdjust="spacingAndGlyphs">BTB-1774</text></g>
<line x1="89.22" y1="388.50" x2="94.62" y2="383.10" stroke-width="0.75" stroke="#FF0000" stroke-linecap="round" stroke-linejoin="round"/>
<line x1="89.22" y1="383.10" x2="94.62" y2="388.50" stroke-width="0.75" stroke="#FF0000" stroke-linecap="round" stroke-linejoin="round"/>
<line x1="88.10" y1="385.80" x2="95.74" y2="385.80" stroke-width="0.75" stroke="#FF0000" stroke-linecap="round" stroke-linejoin="round"/>
<line x1="91.92" y1="389.62" x2="91.92" y2="381.98" stroke-width="0.75" stroke="#FF0000" stroke-linecap="round" stroke-linejoin="round"/>
<line x1="156.04" y1="199.40" x2="161.44" y2="194.00" stroke-width="0.75" stroke="#FF0000" stroke-linecap="round" stroke-linejoin="round"/>
<line x1="156.04" y1="194.00" x2="161.44" y2="199.40" stroke-width="0.75" stroke="#FF0000" stroke-linecap="round" stroke-linejoin="round"/>
<line x1="154.92" y1="196.70" x2="162.56" y2="196.70" stroke-width="0.75" stroke="#FF0000" stroke-linecap="round" stroke-linejoin="round"/>
<line x1="158.74" y1="200.52" x2="158.74" y2="192.88" stroke-width="0.75" stroke="#FF0000" stroke-linecap="round" stroke-linejoin="round"/>
<line x1="151.05" y1="464.14" x2="156.45" y2="458.74" stroke-width="0.75" stroke="#FF0000" stroke-linecap="round" stroke-linejoin="round"/>
<line x1="151.05" y1="458.74" x2="156.45" y2="464.14" stroke-width="0.75" stroke="#FF0000" stroke-linecap="round" stroke-linejoin="round"/>
<line x1="149.93" y1="461.44" x2="157.57" y2="461.44" stroke-width="0.75" stroke="#FF0000" stroke-linecap="round" stroke-linejoin="round"/>
<line x1="153.75" y1="465.26" x2="153.75" y2="457.62" stroke-width="0.75" stroke="#FF0000" stroke-linecap="round" stroke-linejoin="round"/>
<line x1="243.27" y1="199.40" x2="248.67" y2="194.00" stroke-width="0.75" stroke="#FF0000" stroke-linecap="round" stroke-linejoin="round"/>
<line x1="243.27" y1="194.00" x2="248.67" y2="199.40" stroke-width="0.75" stroke="#FF0000" stroke-linecap="round" stroke-linejoin="round"/>
<line x1="242.15" y1="196.70" x2="249.79" y2="196.70" stroke-width="0.75" stroke="#FF0000" stroke-linecap="round" stroke-linejoin="round"/>
<line x1="245.97" y1="200.52" x2="245.97" y2="192.88" stroke-width="0.75" stroke="#FF0000" stroke-linecap="round" stroke-linejoin="round"/>
<line x1="267.45" y1="464.14" x2="272.85" y2="458.74" stroke-width="0.75" stroke="#FF0000" stroke-linecap="round" stroke-linejoin="round"/>
<line x1="267.45" y1="458.74" x2="272.85" y2="464.14" stroke-width="0.75" stroke="#FF0000" stroke-linecap="round" stroke-linejoin="round"/>
<line x1="266.33" y1="461.44" x2="273.96" y2="461.44" stroke-width="0.75" stroke="#FF0000" stroke-linecap="round" stroke-linejoin="round"/>
<line x1="270.15" y1="465.26" x2="270.15" y2="457.62" stroke-width="0.75" stroke="#FF0000" stroke-linecap="round" stroke-linejoin="round"/>
<line x1="318.37" y1="199.40" x2="323.77" y2="194.00" stroke-width="0.75" stroke="#FF0000" stroke-linecap="round" stroke-linejoin="round"/>
<line x1="318.37" y1="194.00" x2="323.77" y2="199.40" stroke-width="0.75" stroke="#FF0000" stroke-linecap="round" stroke-linejoin="round"/>
<line x1="317.25" y1="196.70" x2="324.88" y2="196.70" stroke-width="0.75" stroke="#FF0000" stroke-linecap="round" stroke-linejoin="round"/>
<line x1="321.07" y1="200.52" x2="321.07" y2="192.88" stroke-width="0.75" stroke="#FF0000" stroke-linecap="round" stroke-linejoin="round"/>
<line x1="403.31" y1="464.14" x2="408.71" y2="458.74" stroke-width="0.75" stroke="#FF0000" stroke-linecap="round" stroke-linejoin="round"/>
<line x1="403.31" y1="458.74" x2="408.71" y2="464.14" stroke-width="0.75" stroke="#FF0000" stroke-linecap="round" stroke-linejoin="round"/>
<line x1="402.19" y1="461.44" x2="409.82" y2="461.44" stroke-width="0.75" stroke="#FF0000" stroke-linecap="round" stroke-linejoin="round"/>
<line x1="406.01" y1="465.26" x2="406.01" y2="457.62" stroke-width="0.75" stroke="#FF0000" stroke-linecap="round" stroke-linejoin="round"/>
<line x1="378.53" y1="199.40" x2="383.93" y2="194.00" stroke-width="0.75" stroke="#FF0000" stroke-linecap="round" stroke-linejoin="round"/>
<line x1="378.53" y1="194.00" x2="383.93" y2="199.40" stroke-width="0.75" stroke="#FF0000" stroke-linecap="round" stroke-linejoin="round"/>
<line x1="377.41" y1="196.70" x2="385.05" y2="196.70" stroke-width="0.75" stroke="#FF0000" stroke-linecap="round" stroke-linejoin="round"/>
<line x1="381.23" y1="200.52" x2="381.23" y2="192.88" stroke-width="0.75" stroke="#FF0000" stroke-linecap="round" stroke-linejoin="round"/>
<line x1="446.32" y1="199.40" x2="451.72" y2="194.00" stroke-width="0.75" stroke="#FF0000" stroke-linecap="round" stroke-linejoin="round"/>
<line x1="446.32" y1="194.00" x2="451.72" y2="199.40" stroke-width="0.75" stroke="#FF0000" stroke-linecap="round" stroke-linejoin="round"/>
<line x1="445.21" y1="196.70" x2="452.84" y2="196.70" stroke-width="0.75" stroke="#FF0000" stroke-linecap="round" stroke-linejoin="round"/>
<line x1="449.02" y1="200.52" x2="449.02" y2="192.88" stroke-width="0.75" stroke="#FF0000" stroke-linecap="round" stroke-linejoin="round"/>
<line x1="468.62" y1="312.86" x2="474.02" y2="307.46" stroke-width="0.75" stroke="#FF0000" stroke-linecap="round" stroke-linejoin="round"/>
<line x1="468.62" y1="307.46" x2="474.02" y2="312.86" stroke-width="0.75" stroke="#FF0000" stroke-linecap="round" stroke-linejoin="round"/>
<line x1="467.50" y1="310.16" x2="475.14" y2="310.16" stroke-width="0.75" stroke="#FF0000" stroke-linecap="round" stroke-linejoin="round"/>
<line x1="471.32" y1="313.98" x2="471.32" y2="306.34" stroke-width="0.75" stroke="#FF0000" stroke-linecap="round" stroke-linejoin="round"/>
<line x1="503.45" y1="501.96" x2="508.85" y2="496.56" stroke-width="0.75" stroke="#FF0000" stroke-linecap="round" stroke-linejoin="round"/>
<line x1="503.45" y1="496.56" x2="508.85" y2="501.96" stroke-width="0.75" stroke="#FF0000" stroke-linecap="round" stroke-linejoin="round"/>
<line x1="502.33" y1="499.26" x2="509.96" y2="499.26" stroke-width="0.75" stroke="#FF0000" stroke-linecap="round" stroke-linejoin="round"/>
<line x1="506.15" y1="503.08" x2="506.15" y2="495.44" stroke-width="0.75" stroke="#FF0000" stroke-linecap="round" stroke-linejoin="round"/>
<line x1="526.34" y1="199.40" x2="531.74" y2="194.00" stroke-width="0.75" stroke="#FF0000" stroke-linecap="round" stroke-linejoin="round"/>
<line x1="526.34" y1="194.00" x2="531.74" y2="199.40" stroke-width="0.75" stroke="#FF0000" stroke-linecap="round" stroke-linejoin="round"/>
<line x1="525.22" y1="196.70" x2="532.86" y2="196.70" stroke-width="0.75" stroke="#FF0000" stroke-linecap="round" stroke-linejoin="round"/>
<line x1="529.04" y1="200.52" x2="529.04" y2="192.88" stroke-width="0.75" stroke="#FF0000" stroke-linecap="round" stroke-linejoin="round"/>
<line x1="608.93" y1="312.86" x2="614.33" y2="307.46" stroke-width="0.75" stroke="#FF0000" stroke-linecap="round" stroke-linejoin="round"/>
<line x1="608.93" y1="307.46" x2="614.33" y2="312.86" stroke-width="0.75" stroke="#FF0000" stroke-linecap="round" stroke-linejoin="round"/>
<line x1="607.81" y1="310.16" x2="615.45" y2="310.16" stroke-width="0.75" stroke="#FF0000" stroke-linecap="round" stroke-linejoin="round"/>
<line x1="611.63" y1="313.98" x2="611.63" y2="306.34" stroke-width="0.75" stroke="#FF0000" stroke-linecap="round" stroke-linejoin="round"/>
<line x1="583.82" y1="199.40" x2="589.22" y2="194.00" stroke-width="0.75" stroke="#FF0000" stroke-linecap="round" stroke-linejoin="round"/>
<line x1="583.82" y1="194.00" x2="589.22" y2="199.40" stroke-width="0.75" stroke="#FF0000" stroke-linecap="round" stroke-linejoin="round"/>
<line x1="582.71" y1="196.70" x2="590.34" y2="196.70" stroke-width="0.75" stroke="#FF0000" stroke-linecap="round" stroke-linejoin="round"/>
<line x1="586.52" y1="200.52" x2="586.52" y2="192.88" stroke-width="0.75" stroke="#FF0000" stroke-linecap="round" stroke-linejoin="round"/>
<line x1="729.68" y1="312.86" x2="735.08" y2="307.46" stroke-width="0.75" stroke="#FF0000" stroke-linecap="round" stroke-linejoin="round"/>
<line x1="729.68" y1="307.46" x2="735.08" y2="312.86" stroke-width="0.75" stroke="#FF0000" stroke-linecap="round" stroke-linejoin="round"/>
<line x1="728.56" y1="310.16" x2="736.20" y2="310.16" stroke-width="0.75" stroke="#FF0000" stroke-linecap="round" stroke-linejoin="round"/>
<line x1="732.38" y1="313.98" x2="732.38" y2="306.34" stroke-width="0.75" stroke="#FF0000" stroke-linecap="round" stroke-linejoin="round"/>
<line x1="600.41" y1="388.50" x2="605.81" y2="383.10" stroke-width="0.75" stroke="#FF0000" stroke-linecap="round" stroke-linejoin="round"/>
<line x1="600.41" y1="383.10" x2="605.81" y2="388.50" stroke-width="0.75" stroke="#FF0000" stroke-linecap="round" stroke-linejoin="round"/>
<line x1="599.29" y1="385.80" x2="606.93" y2="385.80" stroke-width="0.75" stroke="#FF0000" stroke-linecap="round" stroke-linejoin="round"/>
<line x1="603.11" y1="389.62" x2="603.11" y2="381.98" stroke-width="0.75" stroke="#FF0000" stroke-linecap="round" stroke-linejoin="round"/>
<line x1="642.89" y1="464.14" x2="648.29" y2="458.74" stroke-width="0.75" stroke="#FF0000" stroke-linecap="round" stroke-linejoin="round"/>
<line x1="642.89" y1="458.74" x2="648.29" y2="464.14" stroke-width="0.75" stroke="#FF0000" stroke-linecap="round" stroke-linejoin="round"/>
<line x1="641.77" y1="461.44" x2="649.40" y2="461.44" stroke-width="0.75" stroke="#FF0000" stroke-linecap="round" stroke-linejoin="round"/>
<line x1="645.59" y1="465.26" x2="645.59" y2="457.62" stroke-width="0.75" stroke="#FF0000" stroke-linecap="round" stroke-linejoin="round"/>
<line x1="619.09" y1="577.60" x2="624.49" y2="572.20" stroke-width="0.75" stroke="#FF0000" stroke-linecap="round" stroke-linejoin="round"/>
<line x1="619.09" y1="572.20" x2="624.49" y2="577.60" stroke-width="0.75" stroke="#FF0000" stroke-linecap="round" stroke-linejoin="round"/>
<line x1="617.97" y1="574.90" x2="625.61" y2="574.90" stroke-width="0.75" stroke="#FF0000" stroke-linecap="round" stroke-linejoin="round"/>
<line x1="621.79" y1="578.72" x2="621.79" y2="571.08" stroke-width="0.75" stroke="#FF0000" stroke-linecap="round" stroke-linejoin="round"/>
<line x1="623.17" y1="161.58" x2="628.57" y2="156.18" stroke-width="0.75" stroke="#FF0000" stroke-linecap="round" stroke-linejoin="round"/>
<line x1="623.17" y1="156.18" x2="628.57" y2="161.58" stroke-width="0.75" stroke="#FF0000" stroke-linecap="round" stroke-linejoin="round"/>
<line x1="622.05" y1="158.88" x2="629.69" y2="158.88" stroke-width="0.75" stroke="#FF0000" stroke-linecap="round" stroke-linejoin="round"/>
<line x1="625.87" y1="162.70" x2="625.87" y2="155.06" stroke-width="0.75" stroke="#FF0000" stroke-linecap="round" stroke-linejoin="round"/>
<line x1="672.27" y1="161.58" x2="677.67" y2="156.18" stroke-width="0.75" stroke="#FF0000" stroke-linecap="round" stroke-linejoin="round"/>
<line x1="672.27" y1="156.18" x2="677.67" y2="161.58" stroke-width="0.75" stroke="#FF0000" stroke-linecap="round" stroke-linejoin="round"/>
<line x1="671.15" y1="158.88" x2="678.78" y2="158.88" stroke-width="0.75" stroke="#FF0000" stroke-linecap="round" stroke-linejoin="round"/>
<line x1="674.97" y1="162.70" x2="674.97" y2="155.06" stroke-width="0.75" stroke="#FF0000" stroke-linecap="round" stroke-linejoin="round"/>
<line x1="708.77" y1="539.78" x2="714.17" y2="534.38" stroke-width="0.75" stroke="#FF0000" stroke-linecap="round" stroke-linejoin="round"/>
<line x1="708.77" y1="534.38" x2="714.17" y2="539.78" stroke-width="0.75" stroke="#FF0000" stroke-linecap="round" stroke-linejoin="round"/>
<line x1="707.65" y1="537.08" x2="715.29" y2="537.08" stroke-width="0.75" stroke="#FF0000" stroke-linecap="round" stroke-linejoin="round"/>
<line x1="711.47" y1="540.90" x2="711.47" y2="533.26" stroke-width="0.75" stroke="#FF0000" stroke-linecap="round" stroke-linejoin="round"/>
<line x1="702.97" y1="615.42" x2="708.37" y2="610.02" stroke-width="0.75" stroke="#FF0000" stroke-linecap="round" stroke-linejoin="round"/>
<line x1="702.97" y1="610.02" x2="708.37" y2="615.42" stroke-width="0.75" stroke="#FF0000" stroke-linecap="round" stroke-linejoin="round"/>
<line x1="701.85" y1="612.72" x2="709.49" y2="612.72" stroke-width="0.75" stroke="#FF0000" stroke-linecap="round" stroke-linejoin="round"/>
<line x1="705.67" y1="616.54" x2="705.67" y2="608.90" stroke-width="0.75" stroke="#FF0000" stroke-linecap="round" stroke-linejoin="round"/>
<line x1="745.55" y1="161.58" x2="750.95" y2="156.18" stroke-width="0.75" stroke="#FF0000" stroke-linecap="round" stroke-linejoin="round"/>
<line x1="745.55" y1="156.18" x2="750.95" y2="161.58" stroke-width="0.75" stroke="#FF0000" stroke-linecap="round" stroke-linejoin="round"/>
<line x1="744.43" y1="158.88" x2="752.07" y2="158.88" stroke-width="0.75" stroke="#FF0000" stroke-linecap="round" stroke-linejoin="round"/>
<line x1="748.25" y1="162.70" x2="748.25" y2="155.06" stroke-width="0.75" stroke="#FF0000" stroke-linecap="round" stroke-linejoin="round"/>
<line x1="803.16" y1="539.78" x2="808.56" y2="534.38" stroke-width="0.75" stroke="#FF0000" stroke-linecap="round" stroke-linejoin="round"/>
<line x1="803.16" y1="534.38" x2="808.56" y2="539.78" stroke-width="0.75" stroke="#FF0000" stroke-linecap="round" stroke-linejoin="round"/>
<line x1="802.05" y1="537.08" x2="809.68" y2="537.08" stroke-width="0.75" stroke="#FF0000" stroke-linecap="round" stroke-linejoin="round"/>
<line x1="805.86" y1="540.90" x2="805.86" y2="533.26" stroke-width="0.75" stroke="#FF0000" stroke-linecap="round" stroke-linejoin="round"/>
<line x1="822.01" y1="161.58" x2="827.41" y2="156.18" stroke-width="0.75" stroke="#FF0000" stroke-linecap="round" stroke-linejoin="round"/>
<line x1="822.01" y1="156.18" x2="827.41" y2="161.58" stroke-width="0.75" stroke="#FF0000" stroke-linecap="round" stroke-linejoin="round"/>
<line x1="820.89" y1="158.88" x2="828.52" y2="158.88" stroke-width="0.75" stroke="#FF0000" stroke-linecap="round" stroke-linejoin="round"/>
<line x1="824.71" y1="162.70" x2="824.71" y2="155.06" stroke-width="0.75" stroke="#FF0000" stroke-linecap="round" stroke-linejoin="round"/>
</g>
</svg>